<svg xmlns="http://www.w3.org/2000/svg" viewBox="0 0 200.13 40.77"><defs><style>.cls-1{fill:#f2f2f3;opacity:0.74;}.cls-2{fill:#1c77b9;}.cls-3{fill:#fff;}.cls-4{fill:#37aedd;}</style></defs><g id="Calque_2" data-name="Calque 2"><g id="Calque_1-2" data-name="Calque 1"><rect class="cls-1" width="200.13" height="40.77" rx="3.21"/><rect id="Прямоугольник_29" data-name="Прямоугольник 29" class="cls-2" x="5.23" y="8.2" width="25.07" height="25.07" rx="3.92"/><path class="cls-3" d="M16.69,21.79l.48-.21.2.48-.47.2Z"/><path class="cls-3" d="M17.11,22.73l.47-.2.19.43-.48.2Z"/><path class="cls-3" d="M16.28,20.84l.47-.2.21.47-.47.21Z"/><path class="cls-3" d="M20.09,16.86v.52h1.23l.86,1.91.47-.21-1-2.22Z"/><path class="cls-3" d="M11.57,16.34a1.81,1.81,0,1,0,0-3.61h-.26v.45l.07.08a.77.77,0,0,1-.58,1.28.74.74,0,0,1-.51-.2l-.07-.06H9.76v.26A1.81,1.81,0,0,0,11.57,16.34Zm-.77-1.29a1.29,1.29,0,0,0,1.29-1.29,1.32,1.32,0,0,0-.08-.44A1.29,1.29,0,1,1,10.36,15,1.31,1.31,0,0,0,10.8,15.05Z"/><path class="cls-3" d="M25,17.92v0a1.3,1.3,0,0,0-.14-.58,1.28,1.28,0,0,0,.58-2.08,1.31,1.31,0,0,0-1.22-1.73,1.2,1.2,0,0,0-.42.08,1.56,1.56,0,0,0-1.38-.85,1.54,1.54,0,0,0-1,.33,1.3,1.3,0,0,0-.86-.33,1.27,1.27,0,0,0-1.2.83,1.35,1.35,0,0,0-.35-.06,1.3,1.3,0,0,0-1.29,1.3,1.61,1.61,0,0,0,.07.43,1.22,1.22,0,0,0-.3.6H13.21L9.76,23.52v.57h9a2,2,0,0,0-.18.79A1.77,1.77,0,0,0,18.9,26L16.55,28.3l.37.36,2.34-2.34a2.12,2.12,0,0,0,.43.28l-1.11,1.74.44.28,1.16-1.82a3.57,3.57,0,0,0,.68.12v1.82h.51V26.92a3.35,3.35,0,0,0,.8-.12l1.33,1.83.41-.3-1.25-1.72a2,2,0,0,0,.38-.24l2.29,2.29.37-.36L23.39,26a2,2,0,0,0,.32-1.11,2.18,2.18,0,0,0-.16-.79h2.22v-.57l-1.95-4.35A1.32,1.32,0,0,0,25,17.92Zm-6.2-2.61V14.8a1.18,1.18,0,0,0-.5.1.44.44,0,0,1,0-.1.78.78,0,0,1,.78-.78.77.77,0,0,1,.77.78h.52a1.27,1.27,0,0,0-.48-1,.77.77,0,0,1,1.37-.22l.19.26.21-.24a1,1,0,1,1,.78,1.71v.52A1.55,1.55,0,0,0,24,14.28a1.48,1.48,0,0,0,0-.21.86.86,0,0,1,.27-.05.78.78,0,0,1,.78.78.81.81,0,0,1-.1.36l-.1.19.16.14a.76.76,0,0,1,.29.6.77.77,0,0,1-.77.77h0a1.22,1.22,0,0,0-.34-.18l-.17.48a.78.78,0,0,1-.3,1.51H23.6l-1.28-2.84H18.07a.78.78,0,0,1,.73-.52ZM15.56,23a8.32,8.32,0,0,1-1.92-5.31v-.31l2.7,6.24h-.26Zm-.15.62H11.35l.24-.29a8.87,8.87,0,0,0,1.79-3.54,8.85,8.85,0,0,0,1.78,3.54Zm-2.29-6.28v.35A8.32,8.32,0,0,1,11.2,23l-.52.62h-.37Zm5.94,7.59a2,2,0,0,1,.52-1.19,2.68,2.68,0,0,0,.45-.76c.16.09.32.23.32.39v.25h.52v-.25a.78.78,0,0,0-.17-.48,2.17,2.17,0,0,1,1-1,4.84,4.84,0,0,0,.6,1.05,4,4,0,0,1,.88,2,1.36,1.36,0,0,1-.88,1.33,1.17,1.17,0,0,0,.11-.49,1.22,1.22,0,0,0-.27-.76l-1-1.28L20.1,25a1.22,1.22,0,0,0-.27.76,1.16,1.16,0,0,0,.08.42A1.44,1.44,0,0,1,19.06,24.88Zm2.05,1.53H21a.7.7,0,0,1-.51-1.13l.62-.78.63.78a.75.75,0,0,1,.15.44.7.7,0,0,1-.68.69Zm2.21-2.84a9.7,9.7,0,0,0-.58-.93,2.93,2.93,0,0,1-.58-1.13v-.36l-.34.11a3,3,0,0,0-1.52,1.23,1.59,1.59,0,0,0-.39-.18l-.33-.11v.35a1.59,1.59,0,0,1-.42.84l-.13.18H16.9l-3.13-7.23H22l3.24,7.23Z"/><path class="cls-3" d="M19.06,16.86h.52v.52h-.52Z"/><path class="cls-3" d="M18,16.86h.51v.52H18Z"/><rect id="Прямоугольник_29-2" data-name="Прямоугольник 29" class="cls-2" x="37.99" y="8.2" width="25.07" height="25.07" rx="3.92"/><path class="cls-3" d="M58.44,18.67H43.29A.34.34,0,0,0,43,19v8.26A1.72,1.72,0,0,0,44.67,29H57.06a1.72,1.72,0,0,0,1.72-1.72V19A.34.34,0,0,0,58.44,18.67Zm-.35,8.6a1,1,0,0,1-1,1H44.67a1,1,0,0,1-1-1V19.35H58.09Z"/><path class="cls-3" d="M58.77,15.48l-.58-2.22A1.05,1.05,0,0,0,57,12.5L43.08,15.79a1,1,0,0,0-.65.47,1,1,0,0,0-.12.79L43,19.61a.34.34,0,0,0,.33.26h.09a.34.34,0,0,0,.25-.41l0-.15,14.92-3.4a.32.32,0,0,0,.22-.15A.36.36,0,0,0,58.77,15.48ZM43.42,18.63,43,16.88a.3.3,0,0,1,0-.26.33.33,0,0,1,.22-.16l13.87-3.29h.07a.35.35,0,0,1,.34.27L58,15.31Z"/><path class="cls-3" d="M46.2,18.7a.35.35,0,0,0-.46.16l-1.38,2.75a.35.35,0,0,0,.62.31l1.37-2.76A.34.34,0,0,0,46.2,18.7Z"/><path class="cls-3" d="M49.64,18.7a.35.35,0,0,0-.46.16L47.8,21.61a.35.35,0,0,0,.16.46.28.28,0,0,0,.15,0,.34.34,0,0,0,.31-.19l1.38-2.76A.35.35,0,0,0,49.64,18.7Z"/><path class="cls-3" d="M53.08,18.7a.35.35,0,0,0-.46.16l-1.37,2.75a.34.34,0,0,0,.15.46.28.28,0,0,0,.15,0,.34.34,0,0,0,.31-.19l1.38-2.76A.35.35,0,0,0,53.08,18.7Z"/><path class="cls-3" d="M56.53,18.7a.36.36,0,0,0-.47.16l-1.37,2.75a.34.34,0,0,0,.15.46.29.29,0,0,0,.16,0,.34.34,0,0,0,.3-.19l1.38-2.76A.34.34,0,0,0,56.53,18.7Z"/><path class="cls-3" d="M58.44,21.42H43.29a.34.34,0,0,0-.34.34.35.35,0,0,0,.34.35H58.44a.35.35,0,0,0,.34-.35A.34.34,0,0,0,58.44,21.42Z"/><path class="cls-3" d="M46.62,18.07l-2.37-2.38a.35.35,0,1,0-.49.49l2.37,2.37a.35.35,0,0,0,.25.1.34.34,0,0,0,.24-.58Z"/><path class="cls-3" d="M50,17.3l-2.37-2.37a.35.35,0,0,0-.49.49l2.37,2.37a.35.35,0,0,0,.49,0A.36.36,0,0,0,50,17.3Z"/><path class="cls-3" d="M53.35,16.54,51,14.16a.36.36,0,0,0-.49,0,.34.34,0,0,0,0,.49L52.87,17a.34.34,0,0,0,.48,0A.33.33,0,0,0,53.35,16.54Z"/><path class="cls-3" d="M56.72,15.77,54.35,13.4a.35.35,0,0,0-.49.49l2.37,2.37a.35.35,0,0,0,.49,0A.36.36,0,0,0,56.72,15.77Z"/><rect id="Прямоугольник_29-3" data-name="Прямоугольник 29" class="cls-2" x="103.52" y="8.2" width="25.07" height="25.07" rx="3.92"/><path class="cls-3" d="M117.66,18.09a3.45,3.45,0,1,0,3.45,3.45,3.45,3.45,0,0,0-3.45-3.45Zm0,6.41a3,3,0,1,1,3-3A3,3,0,0,1,117.66,24.5Z"/><path class="cls-3" d="M117.66,20.23A1.31,1.31,0,1,0,119,21.54a1.31,1.31,0,0,0-1.31-1.31Zm0,2.13a.83.83,0,1,1,.83-.82A.83.83,0,0,1,117.66,22.36Z"/><path class="cls-3" d="M123,17h-.88a.83.83,0,0,1-.77-.52l-.53-1.33a1.31,1.31,0,0,0-1.22-.83h-4.43a1.31,1.31,0,0,0-1.22.83l-.53,1.33a.84.84,0,0,1-.77.52h-1.17v-.57a.5.5,0,0,0-.5-.5H109.9a.5.5,0,0,0-.5.5V17h-.29a1.32,1.32,0,0,0-1.32,1.31v7.48a1.31,1.31,0,0,0,1.32,1.31h5a.23.23,0,0,0,.24-.24.24.24,0,0,0-.24-.24h-.44v-.57a.51.51,0,0,0-.51-.5h-.56V19.64h1a4.48,4.48,0,0,0-.42,1.9,4.52,4.52,0,0,0,9,.77h.36a.78.78,0,1,0,0-1.55h-.36a4.71,4.71,0,0,0-.35-1.12h2.07v1.53a.25.25,0,1,0,.49,0V18.33A1.31,1.31,0,0,0,123,17Zm-13.13-.57,0,0H111s0,0,0,0V17h-1.12Zm-.77,1.05h3v1.66h-3.79v-.83A.83.83,0,0,1,109.11,17.5Zm4,8.57v.57h-1.65v-.57s0,0,0,0h1.62S113.14,26.06,113.14,26.07Zm-1.07-.5h-.57a.51.51,0,0,0-.5.5v.57h-1.89a.83.83,0,0,1-.83-.83V23.38h.83a.24.24,0,0,0,0-.48h-.83v-.59h.83a.24.24,0,0,0,0-.48h-.83v-.59h.83a.24.24,0,0,0,.24-.24.24.24,0,0,0-.24-.24h-.83V19.64h3.79Zm5.59,0a4,4,0,1,1,4-4A4,4,0,0,1,117.66,25.57Zm4.81-4.33a.3.3,0,0,1,.29.3.29.29,0,0,1-.29.29h-.3c0-.1,0-.2,0-.29s0-.2,0-.3Zm-1-2.08a4.52,4.52,0,0,0-7.68,0h-1.26V17.5h.1a1.3,1.3,0,0,0,1.22-.82l.53-1.33a.81.81,0,0,1,.77-.52h4.43a.82.82,0,0,1,.77.52l.53,1.33a1.3,1.3,0,0,0,1.22.82H123a.83.83,0,0,1,.82.83v.83Z"/><path class="cls-3" d="M124.08,21.9a.25.25,0,0,0-.25.24v3.67a.83.83,0,0,1-.82.83h-8a.24.24,0,0,0-.24.24.24.24,0,0,0,.24.24h8a1.31,1.31,0,0,0,1.31-1.31V22.14a.24.24,0,0,0-.24-.24Z"/><path class="cls-3" d="M119.26,16h-3.74a.24.24,0,0,0,0,.48h3.74a.24.24,0,1,0,0-.48Z"/><path class="cls-3" d="M123,26.06a.25.25,0,0,0,.24-.25V24.74a.24.24,0,0,0-.24-.24h-1.07a.24.24,0,0,0-.24.24v1.07a.24.24,0,0,0,.24.25ZM122.18,25h.58v.58h-.58Z"/><rect id="Прямоугольник_29-4" data-name="Прямоугольник 29" class="cls-2" x="70.76" y="8.2" width="25.07" height="25.07" rx="3.92"/><path class="cls-3" d="M75.32,22.15a.37.37,0,0,0-.18.48L76,24.4a.36.36,0,0,0,.21.19l.12,0a.41.41,0,0,0,.16,0l6.22-2.91-.57,5.89a.39.39,0,0,0,.12.31,1.6,1.6,0,0,0,1,.37.92.92,0,0,0,.29,0,1.83,1.83,0,0,0,1.16-1.35l2.45-7.25,4.85-2.26c1.43-.67,2.17-2,1.67-3.07a1.85,1.85,0,0,0-1.43-1,3.37,3.37,0,0,0-2,.31L84.59,16.2l-6-2.35a1.86,1.86,0,0,0-1.78,0,1.55,1.55,0,0,0-.55,1.19.39.39,0,0,0,.16.28l4,2.79-2.32,1.1-3.89-1a.36.36,0,0,0-.4.17l-1,1.75a.39.39,0,0,0,0,.3.4.4,0,0,0,.22.22l2.88,1.19ZM77,14.87a.67.67,0,0,1,.22-.39c.21-.15.59-.13,1.1.06l5.36,2.09-2.44,1.14ZM73.7,20.16,74.34,19l3.74.93a.33.33,0,0,0,.24,0l12.17-5.68A2.66,2.66,0,0,1,92.06,14a1.17,1.17,0,0,1,.89.58c.31.66-.3,1.62-1.32,2.1l-4.22,2,.26-.75a.38.38,0,0,0-.24-.48.39.39,0,0,0-.47.24l-3,9c-.18.51-.4.82-.65.88a.65.65,0,0,1-.45-.08l.74-7.69a.37.37,0,0,0-.74-.07l-.11,1.18-6.28,2.93-.52-1.1,1-.49a.35.35,0,0,0,.21-.33.37.37,0,0,0-.21-.34Z"/><rect id="Прямоугольник_29-5" data-name="Прямоугольник 29" class="cls-2" x="136.28" y="8.2" width="25.07" height="25.07" rx="3.92"/><path class="cls-3" d="M155.91,13.59a.45.45,0,0,0-.35-.09l-9.39,1.7a.42.42,0,0,0-.35.42v7.91a2.54,2.54,0,1,0,.85,1.9V19.08l8.54-1.54v4.72a2.54,2.54,0,1,0,.85,1.9V13.92A.45.45,0,0,0,155.91,13.59ZM144.12,27.13a1.7,1.7,0,1,1,1.7-1.7A1.7,1.7,0,0,1,144.12,27.13Zm2.55-8.91V16l8.54-1.54v2.25Zm6.84,7.63a1.7,1.7,0,1,1,1.7-1.69A1.69,1.69,0,0,1,153.51,25.85Z"/><rect id="Прямоугольник_29-6" data-name="Прямоугольник 29" class="cls-2" x="169.04" y="8.2" width="25.07" height="25.07" rx="3.92"/><path class="cls-3" d="M186.31,21.6a3.11,3.11,0,0,0-1.54-1.09,2.85,2.85,0,0,0,1.59-2.74,3,3,0,0,0-1.27-2.55,5.46,5.46,0,0,0-3.39-1c-.88,0-2.66.05-5.37.14v2.93l2.84,1.39V16.9a19.15,19.15,0,0,1,2.12-.08,3.21,3.21,0,0,1,1.6.33,1,1,0,0,1,.56.94,1.11,1.11,0,0,1-.58,1,6.52,6.52,0,0,1-2.07.35v2.39c1.61,0,3.08.5,3.08,1.42s-.87,1.41-2.61,1.41a11.57,11.57,0,0,1-2.1-.13V22.18l-2.84,1.67v3.22c2.94.09,4.79.13,5.56.13a5.8,5.8,0,0,0,3.65-1,3.34,3.34,0,0,0,1.32-2.8A2.94,2.94,0,0,0,186.31,21.6Z"/><path class="cls-4" d="M179.63,20.51l-2.75-1.9a.36.36,0,0,0-.48.06.34.34,0,0,0-.06.12.33.33,0,0,0,0,.14v2.19a.33.33,0,0,0,.33.32h0a.33.33,0,0,0,.33-.32V19.49l1.84,1.28-2.28,1.58a.3.3,0,0,0-.06.44.36.36,0,0,0,.48.07L179.61,21l0,0,.07-.05A.31.31,0,0,0,179.63,20.51Z"/></g></g></svg>