<svg xmlns="http://www.w3.org/2000/svg" viewBox="0 0 200.93 40.77"><defs><style>.cls-1{fill:#f2f2f3;opacity:0.74;}.cls-2{fill:#1c77b9;}.cls-3{fill:#fff;}</style></defs><g id="Calque_2" data-name="Calque 2"><g id="Calque_1-2" data-name="Calque 1"><rect class="cls-1" width="200.93" height="40.77" rx="3.22"/><g id="After_Effects" data-name="After Effects"><rect id="Прямоугольник_3" data-name="Прямоугольник 3" class="cls-2" x="5.84" y="8.2" width="25.07" height="25.07" rx="3.92"/><path id="Контур_4" data-name="Контур 4" class="cls-3" d="M16.14,23.5H12.31L11.53,26a.2.2,0,0,1-.2.15H9.39c-.11,0-.14-.06-.11-.18l3.31-9.41a2.75,2.75,0,0,0,.1-.34,3.05,3.05,0,0,0,.07-.67.1.1,0,0,1,.09-.12h2.66c.08,0,.12,0,.13.08L19.4,26c0,.11,0,.17-.1.17H17.15a.15.15,0,0,1-.17-.12Zm-3.23-1.76h2.62c-.07-.22-.15-.67-.24-.95s-.18-.57-.28-.88l-.3-.95c-.1-.31-.19-.62-.27-.91s-.16-.56-.22-.8h0a12.22,12.22,0,0,1-.35,1.32c-.15.5-.31,1-.47,1.53S13.06,21.3,12.91,21.74Z"/><path id="Контур_5" data-name="Контур 5" class="cls-3" d="M25.48,22.6H22.21a2.46,2.46,0,0,0,.34.95,1.73,1.73,0,0,0,.75.62,3.31,3.31,0,0,0,1.35.29,4.7,4.7,0,0,0,.92-.08,4,4,0,0,0,1-.29c.06,0,.08,0,.08.09v1.57a.16.16,0,0,1,0,.12.27.27,0,0,1-.07.08,5.27,5.27,0,0,1-1.08.36,6.71,6.71,0,0,1-1.34.05,4.81,4.81,0,0,1-2-.37,3.52,3.52,0,0,1-1.29-1,3.89,3.89,0,0,1-.71-1.35,5.5,5.5,0,0,1-.22-1.5,5.36,5.36,0,0,1,.26-1.64,4.35,4.35,0,0,1,.77-1.4,3.52,3.52,0,0,1,1.25-1,3.91,3.91,0,0,1,1.72-.36,4,4,0,0,1,1.68.34,2.84,2.84,0,0,1,1.09.85,3.63,3.63,0,0,1,.61,1.17,4.1,4.1,0,0,1,.2,1.26q0,.36,0,.66a2.14,2.14,0,0,1-.06.35.14.14,0,0,1-.15.13l-.34,0H25.48ZM22.2,21.28H25a1,1,0,0,0,.24,0v-.1a2.92,2.92,0,0,0,0-.59,1.36,1.36,0,0,0-1.35-.94,1.42,1.42,0,0,0-1.36.77A3.61,3.61,0,0,0,22.2,21.28Z"/></g><g id="Illustrator"><rect id="Прямоугольник_16" data-name="Прямоугольник 16" class="cls-2" x="71.37" y="8.2" width="25.07" height="25.07" rx="3.92"/><path id="Контур_30" data-name="Контур 30" class="cls-3" d="M83.59,23.46H79.77L79,26a.19.19,0,0,1-.19.15H76.85c-.11,0-.15-.06-.12-.19L80,16.44a2.31,2.31,0,0,0,.1-.34,2.1,2.1,0,0,0,.07-.56.1.1,0,0,1,.09-.12H83c.08,0,.12,0,.13.08L86.85,26c0,.11,0,.17-.1.17H84.6a.15.15,0,0,1-.17-.12ZM80.34,21.7h2.8c-.06-.22-.29-.73-.38-1s-.21-.49-.31-.81-.2-.63-.29-.94-.2-.62-.28-.91-.16-.57-.22-.81h0a12.4,12.4,0,0,1-.35,1.33l-.47,1.52c-.16.52-.32,1.19-.48,1.63Z"/><path id="Контур_31" data-name="Контур 31" class="cls-3" d="M89.09,17.15a1.24,1.24,0,0,1-.91-.36,1.38,1.38,0,0,1-.35-.95,1.33,1.33,0,0,1,2.23-.92,1.26,1.26,0,0,1,.34.92,1.29,1.29,0,0,1-.35.95A1.31,1.31,0,0,1,89.09,17.15ZM88,26V18.43c0-.1,0-.15.13-.15H90c.08,0,.13,0,.13.15V26c0,.11,0,.17-.13.17H88.17C88.07,26.17,88,26.11,88,26Z"/></g><g id="Lightroom"><rect id="Прямоугольник_20" data-name="Прямоугольник 20" class="cls-2" x="136.89" y="8.2" width="25.07" height="25.07" rx="3.92"/><path id="Контур_39" data-name="Контур 39" class="cls-3" d="M150,26.17h-6.53c-.11,0-.16-.06-.16-.18V15.59a.12.12,0,0,1,.11-.14h2a.1.1,0,0,1,.12.08v0l0,8.41h4.79q.15,0,.12.15l-.28,1.9a.16.16,0,0,1-.06.13Z"/><path id="Контур_40" data-name="Контур 40" class="cls-3" d="M151.84,17.94h1.81a.23.23,0,0,1,.22.17.9.9,0,0,1,.08.23,3.06,3.06,0,0,1,.05.32c0,.12,0,.24,0,.37a3.79,3.79,0,0,1,1.11-.88,2.73,2.73,0,0,1,1.45-.37.11.11,0,0,1,.11,0s0,0,0,.06,0,0,0,.06v2c0,.08-.06.11-.17.11a3.76,3.76,0,0,0-1,.08,4.1,4.1,0,0,0-.86.27,2.52,2.52,0,0,0-.68.38V26c0,.1,0,.15-.13.15H152a.14.14,0,0,1-.16-.12V20.31c0-.24,0-.5,0-.77s0-.54,0-.8a5.05,5.05,0,0,0-.07-.68.1.1,0,0,1,.07-.12Z"/></g><g id="Photoshop"><rect id="Прямоугольник_22" data-name="Прямоугольник 22" class="cls-2" x="104.13" y="8.2" width="25.07" height="25.07" rx="3.92"/><path id="Контур_44" data-name="Контур 44" class="cls-3" d="M109.73,26V15.43c0-.07,0-.11.1-.11h.63l.78,0h1.83a6.43,6.43,0,0,1,2.13.31,3.8,3.8,0,0,1,1.38.85,3.22,3.22,0,0,1,.75,1.17,3.52,3.52,0,0,1,.23,1.33,3.64,3.64,0,0,1-.61,2.19,3.53,3.53,0,0,1-1.65,1.25,6.81,6.81,0,0,1-2.32.39h-1V26a.13.13,0,0,1-.12.15h-2.06C109.77,26.15,109.73,26.11,109.73,26ZM112,17.31v3.42a2.89,2.89,0,0,0,.4,0H113a3.91,3.91,0,0,0,1.18-.16A1.85,1.85,0,0,0,115,20a1.88,1.88,0,0,0,.08-2,1.49,1.49,0,0,0-.72-.59,3.12,3.12,0,0,0-1.21-.21h-.7A3.1,3.1,0,0,0,112,17.31Z"/><path id="Контур_45" data-name="Контур 45" class="cls-3" d="M124,20.07a6,6,0,0,0-1.19-.35,5.55,5.55,0,0,0-1.15-.13,2.15,2.15,0,0,0-.62.08.54.54,0,0,0-.33.2.57.57,0,0,0-.08.28.45.45,0,0,0,.1.27,1.14,1.14,0,0,0,.35.27,6.07,6.07,0,0,0,.73.34,7.41,7.41,0,0,1,1.58.76,2.28,2.28,0,0,1,.81.85,2.17,2.17,0,0,1,.24,1.06,2.39,2.39,0,0,1-.4,1.37,2.54,2.54,0,0,1-1.15.92,4.71,4.71,0,0,1-1.86.33,6.58,6.58,0,0,1-1.4-.14,4.37,4.37,0,0,1-1.12-.33.22.22,0,0,1-.12-.2V23.87a.14.14,0,0,1,0-.1.1.1,0,0,1,.09,0,4.64,4.64,0,0,0,1.34.51,5,5,0,0,0,1.21.15,1.91,1.91,0,0,0,.85-.14.49.49,0,0,0,.28-.44.58.58,0,0,0-.25-.41,4.44,4.44,0,0,0-1-.48,5.83,5.83,0,0,1-1.47-.75,2.57,2.57,0,0,1-.78-.86,2.42,2.42,0,0,1-.24-1.06,2.35,2.35,0,0,1,.35-1.24,2.47,2.47,0,0,1,1.08-.94,3.37,3.37,0,0,1,1.67-.42,9.35,9.35,0,0,1,1.4,0,4.65,4.65,0,0,1,1.09.36.15.15,0,0,1,.1.09.59.59,0,0,1,0,.13V20a.12.12,0,0,1-.05.1.13.13,0,0,1-.12,0Z"/></g><g id="Premiere"><rect id="Прямоугольник_26" data-name="Прямоугольник 26" class="cls-2" x="38.6" y="8.2" width="25.07" height="25.07" rx="3.92"/><path id="Контур_52" data-name="Контур 52" class="cls-3" d="M44.52,25.94V15.38c0-.09,0-.14.09-.14h2.32c.32,0,.72.09,1,.09a6.55,6.55,0,0,1,2.11.32,3.44,3.44,0,0,1,2.15,2A4.7,4.7,0,0,1,52.44,19a3.6,3.6,0,0,1-.62,2.2,3.38,3.38,0,0,1-1.66,1.25,6.64,6.64,0,0,1-2.33.4h-.49c-.09,0-.49-.09-.72-.09V26a.12.12,0,0,1-.1.14H44.61A.44.44,0,0,1,44.52,25.94Zm2.15-8.73v3.45c.13,0,.53.09.67.09h.54A3.31,3.31,0,0,0,49,20.57a1.71,1.71,0,0,0,.85-.54A1.48,1.48,0,0,0,50.2,19a2,2,0,0,0-.22-.9,1.47,1.47,0,0,0-.72-.58,3.81,3.81,0,0,0-1.21-.22h-.71A2.5,2.5,0,0,1,46.67,17.21Z"/><path id="Контур_53" data-name="Контур 53" class="cls-3" d="M53.87,17.93h1.8a.29.29,0,0,1,.22.18c0,.09.09.13.09.22a.69.69,0,0,1,0,.32V19a3.83,3.83,0,0,1,1.12-.89,2.35,2.35,0,0,1,1.44-.36c.09,0,.13,0,.13.09V19.9c0,.09,0,.13-.18.13a2.33,2.33,0,0,0-1,.09,2.73,2.73,0,0,0-.85.27,2.22,2.22,0,0,0-.68.4V26a.12.12,0,0,1-.1.14H54c-.09,0-.13-.05-.18-.14V19.54a5.29,5.29,0,0,0,0-.8c0-.23,0-.45,0-.68,0,0,0,0,0-.09S53.83,17.93,53.87,17.93Z"/></g><rect id="Прямоугольник_29" data-name="Прямоугольник 29" class="cls-2" x="169.66" y="8.2" width="25.07" height="25.07" rx="3.92"/><path id="Контур_58" data-name="Контур 58" class="cls-3" d="M183,14.89l-3.08,5,3.29,5.36a.2.2,0,0,1,0,.13s-.05.06-.12.07h-2.35a.37.37,0,0,1-.35-.16c-.22-.43-.44-.83-.66-1.25s-.45-.86-.7-1.31-.5-.88-.74-1.34h0c-.22.45-.45.89-.68,1.33s-.48.88-.71,1.32-.47.83-.71,1.27a.23.23,0,0,1-.23.14h-2.27s-.07,0-.08-.06h0a.27.27,0,0,1,0-.12l3.2-5.22-3.12-5.14s0-.08,0-.11a.14.14,0,0,1,.1,0h2.34l.15,0a.28.28,0,0,1,.1.09c.2.44.42.75.66,1.2s.49.87.74,1.3.48.87.69,1.31h0c.22-.45.45-.89.67-1.32s.46-.87.7-1.3.47-.75.69-1.18a.17.17,0,0,1,.06-.1.22.22,0,0,1,.14,0h2.17a.09.09,0,0,1,.11.07A.1.1,0,0,1,183,14.89Z"/><path id="Контур_59" data-name="Контур 59" class="cls-3" d="M187.54,25.76a5,5,0,0,1-2.22-.46,3.61,3.61,0,0,1-1.55-1.4,4.55,4.55,0,0,1-.56-2.34,4.33,4.33,0,0,1,.56-2.17,4.11,4.11,0,0,1,1.64-1.59,5.27,5.27,0,0,1,2.61-.6h.21l.4,0V14.3a.27.27,0,0,1,.22-.3h1.61a.31.31,0,0,1,.3.3v9.44c0,.19,0,.4,0,.62s0,.42,0,.59a.12.12,0,0,1,0,.1.19.19,0,0,1-.08.07,8.15,8.15,0,0,1-1.59.5A9.49,9.49,0,0,1,187.54,25.76Zm1.05-2.05V19.19a1.64,1.64,0,0,0-.32-.05l-.34,0a2.6,2.6,0,0,0-1.16.27,2.12,2.12,0,0,0-1.21,2.07,2.75,2.75,0,0,0,.18,1.06,2.15,2.15,0,0,0,.46.73,1.78,1.78,0,0,0,.7.41,2.7,2.7,0,0,0,.85.13h.43A2.7,2.7,0,0,0,188.59,23.71Z"/></g></g></svg>